# xmcd
# 
# Track frame offsets:
#     150
#     52168
#     95541
#     118634
#     126359
#     144053
#     183407
#     214492
#     232971
#     254541
# 
# Disc length: 3770
# 
# Revision: 1
# Processed by: cddbd v1.5.2PL0 Copyright (c) Steve Scherf et al.
# Submitted via: fre:ac v1.0.17
# 
DISCID=940eb80a
DTITLE=Ari Hoenig - Lines of Oppression
DYEAR=2010
DGENRE=Jazz
TTITLE0=Lines of Oppression
TTITLE1=Arrows and Loops
TTITLE2=Wedding Song
TTITLE3=Rhythm
TTITLE4=Rythm-a-ning
TTITLE5=Moanin'
TTITLE6=Love's Feathered Nails
TTITLE7=Ephemeral Eyes
TTITLE8=How High the Moon
TTITLE9=Higher to Hayastan
EXTD=
EXTT0=
EXTT1=
EXTT2=
EXTT3=
EXTT4=
EXTT5=
EXTT6=
EXTT7=
EXTT8=
EXTT9=
PLAYORDER=
